# File created by Blade
# Date/Time:  Fri Jan 16 17:18:57 2015
#---------------------------------------------------------
:version 1.10
:name HOM
:units
  mass 1.0
  length 1.000000
  angle deg
:documentation
     Acclaim Skeleton File
:root
   axis xyz
   order TX TY TZ RX RY RZ
   position 0.000000 0.000000 0.000000
   orientation 0 0 0
:bonedata
   begin
      id 1
      name Spine_dum
      direction 0.000000 1.000000 0.000000
      length 7.170412
      axis 0.0 0.0 0.0 xyz
   end
   begin
      id 2
      name LeftUpLeg_dum
      direction 1.000000 0.000000 0.000000
      length 4.318350
      axis 0.0 0.0 0.0 xyz
   end
   begin
      id 3
      name RightUpLeg_dum
      direction -1.000000 0.000000 0.000000
      length 4.318350
      axis 0.0 0.0 0.0 xyz
   end
   begin
      id 4
      name Spine
      direction 0.000000 1.000000 0.000000
      length 0.000000
      axis 0.0 0.0 0.0 xyz
      dof rx ry rz
   end
   begin
      id 5
      name Spine_dum1
      direction 0.000000 1.000000 0.000000
      length 14.276153
      axis 0.0 0.0 0.0 xyz
   end
   begin
      id 6
      name Spine_dum2
      direction 0.000000 1.000000 0.000000
      length 10.718243
      axis 0.0 0.0 0.0 xyz
   end
   begin
      id 7
      name Spine_dum3
      direction 0.000000 1.000000 0.000000
      length 10.718243
      axis 0.0 0.0 0.0 xyz
   end
   begin
      id 8
      name Head
      direction 0.000000 1.000000 0.000000
      length 4.527550
      axis 0.0 0.0 0.0 xyz
      dof rx ry rz
   end
   begin
      id 9
      name LeftShoulder
      direction 1.000000 0.000000 0.000000
      length 7.058872
      axis 0.0 0.0 -90.0 xyz
      dof rx ry rz
   end
   begin
      id 10
      name LeftArm
      direction 1.000000 0.000000 0.000000
      length 10.955525
      axis 0.0 0.0 -90.0 xyz
      dof rx ry rz
   end
   begin
      id 11
      name LeftForeArm
      direction 1.000000 0.000000 0.000000
      length 8.193716
      axis 0.0 0.0 -90.0 xyz
      dof ry rz rx
   end
   begin
      id 12
      name LeftHand
      direction 0.000000 0.000000 0.000000
      length 0.000000
      axis 0.0 0.0 -90.0 xyz
      dof rx ry rz
   end
   begin
      id 13
      name LeftHand_dum1
      direction 0.000000 0.000000 0.000000
      length 0.000000
      axis 0.0 0.0 -90.0 xyz
   end
   begin
      id 14
      name LeftHand_dum2
      direction 1.000000 0.000000 0.000000
      length 3.937000
      axis 0.0 0.0 -90.0 xyz
   end
   begin
      id 15
      name LeftHandThumb1
      direction 0.000000 0.000000 1.000000
      length 3.937000
      axis 0.0 0.0 -90.0 xyz
      dof rx rz ry
   end
   begin
      id 16
      name RightShoulder
      direction -1.000000 0.000000 0.000000
      length 7.058872
      axis 0.0 0.0 90.0 xyz
      dof rx ry rz
   end
   begin
      id 17
      name RightArm
      direction -1.000000 0.000000 0.000000
      length 10.955525
      axis 0.0 0.0 90.0 xyz
      dof rx ry rz
   end
   begin
      id 18
      name RightForeArm
      direction -1.000000 0.000000 0.000000
      length 8.193716
      axis 0.0 0.0 90.0 xyz
      dof ry rz rx
   end
   begin
      id 19
      name RightHand
      direction 0.000000 0.000000 0.000000
      length 0.000000
      axis 0.0 0.0 90.0 xyz
      dof rx ry rz
   end
   begin
      id 20
      name RightHand_dum1
      direction 0.000000 0.000000 0.000000
      length 0.000000
      axis 0.0 0.0 90.0 xyz
   end
   begin
      id 21
      name RightHand_dum2
      direction -1.000000 0.000000 0.000000
      length 3.937000
      axis 0.0 0.0 90.0 xyz
   end
   begin
      id 22
      name RightHandThumb1
      direction 0.000000 0.000000 1.000000
      length 3.937000
      axis 0.0 0.0 90.0 xyz
      dof rx rz ry
   end
   begin
      id 23
      name LeftUpLeg
      direction 0.000000 -1.000000 0.000000
      length 17.323638
      axis 0.0 0.0 0.0 xyz
      dof rx ry rz
   end
   begin
      id 24
      name LeftLeg
      direction 0.000000 -1.000000 0.000000
      length 16.270368
      axis 0.0 0.0 0.0 xyz
      dof rx ry rz
   end
   begin
      id 25
      name LeftFoot
      direction 0.000000 -0.258819 0.965926
      length 4.922846
      axis 15.0 0.0 0.0 xyz
      dof rx ry rz
   end
   begin
      id 26
      name LeftToeBase
      direction 0.000000 0.000000 1.000000
      length 2.952750
      axis 0.0 0.0 0.0 xyz
      dof rx ry rz
   end
   begin
      id 27
      name RightUpLeg
      direction 0.000000 -1.000000 0.000000
      length 17.323638
      axis 0.0 0.0 0.0 xyz
      dof rx ry rz
   end
   begin
      id 28
      name RightLeg
      direction 0.000000 -1.000000 0.000000
      length 16.270368
      axis 0.0 0.0 0.0 xyz
      dof rx ry rz
   end
   begin
      id 29
      name RightFoot
      direction 0.000000 -0.258819 0.965926
      length 4.922846
      axis 15.0 0.0 0.0 xyz
      dof rx ry rz
   end
   begin
      id 30
      name RightToeBase
      direction 0.000000 0.000000 1.000000
      length 2.952750
      axis 0.0 0.0 0.0 xyz
      dof rx ry rz
   end
:hierarchy
   begin
      root Spine_dum LeftUpLeg_dum RightUpLeg_dum
      Spine_dum Spine
      LeftUpLeg_dum LeftUpLeg
      RightUpLeg_dum RightUpLeg
      Spine Spine_dum1 Spine_dum2 Spine_dum3
      Spine_dum1 Head
      Spine_dum2 LeftShoulder
      Spine_dum3 RightShoulder
      LeftShoulder LeftArm
      LeftArm LeftForeArm
      LeftForeArm LeftHand
      LeftHand LeftHand_dum1 LeftHand_dum2
      LeftHand_dum1 LeftHandThumb1
      RightShoulder RightArm
      RightArm RightForeArm
      RightForeArm RightHand
      RightHand RightHand_dum1 RightHand_dum2
      RightHand_dum1 RightHandThumb1
      LeftUpLeg LeftLeg
      LeftLeg LeftFoot
      LeftFoot LeftToeBase
      RightUpLeg RightLeg
      RightLeg RightFoot
      RightFoot RightToeBase
   end

# File created by Blade
# Date/Time:  Fri Jan 16 17:19:08 2015
# Frame Rate: 120.000 fps
#------------------------------------------------------
:FULLY-SPECIFIED
:DEGREES
3265
root -5.192604 35.177434 -9.079382 1.953062 -4.930402 -6.704899
Spine -5.727407 -3.766796 6.242789
Head 12.506594 -9.471961 -5.087768
LeftShoulder -21.193960 12.936047 -12.253541
LeftArm 15.251144 -14.257039 -76.219758
LeftForeArm 15.688032 0.000000 10.473928
LeftHand 0.272229 -0.000000 -5.099003
LeftHandThumb1 -26.253704 0.000000 33.147579
RightShoulder -14.097262 11.705562 -10.311961
RightArm -62.115949 69.365629 -9.174030
RightForeArm 51.339555 -0.000000 60.635241
RightHand 12.907875 -0.000000 -15.647389
RightHandThumb1 -24.326973 -0.000000 -32.862282
LeftUpLeg 9.837618 13.634922 6.756906
LeftLeg -9.979261 -0.000000 0.000000
LeftFoot -16.464568 28.951752 -7.760238
LeftToeBase 22.739196 -0.000000 -0.000000
RightUpLeg 6.216672 -4.932972 4.685733
RightLeg -4.790633 -0.000000 0.000000
RightFoot -5.089963 -27.802917 5.269050
RightToeBase 13.193070 -0.000000 -0.000000
3266
root -5.191210 35.178322 -9.080937 1.945742 -4.922245 -6.701972
Spine -5.673876 -3.742873 6.225242
Head 12.393899 -9.495023 -5.053757
LeftShoulder -21.191064 12.919170 -12.266647
LeftArm 15.224735 -14.114408 -76.142793
LeftForeArm 15.552065 -0.000000 10.559306
LeftHand 0.232911 0.000000 -5.072860
LeftHandThumb1 -26.253704 0.000000 33.147579
RightShoulder -14.016768 11.713862 -10.423326
RightArm -61.803643 69.115534 -8.871915
RightForeArm 50.841417 0.000000 59.054932
RightHand 12.395301 0.000000 -15.351148
RightHandThumb1 -24.326973 -0.000000 -32.862282
LeftUpLeg 9.837753 13.633763 6.753290
LeftLeg -9.974737 -0.000000 0.000000
LeftFoot -16.463380 28.940494 -7.766776
LeftToeBase 22.736058 -0.000000 -0.000000
RightUpLeg 6.224056 -4.926223 4.679762
RightLeg -4.796032 -0.000000 0.000000
RightFoot -5.080885 -27.804880 5.277557
RightToeBase 13.189558 -0.000000 -0.000000
3267
root -5.190980 35.178733 -9.082809 1.961454 -4.923710 -6.697405
Spine -5.653598 -3.699253 6.186726
Head 12.292930 -9.537550 -4.983095
LeftShoulder -21.217340 12.926231 -12.267451
LeftArm 15.305169 -14.157865 -76.146241
LeftForeArm 15.694396 -0.000000 10.505945
LeftHand 0.291973 -0.000000 -5.058593
LeftHandThumb1 -26.253704 0.000000 33.147579
RightShoulder -13.955936 11.724551 -10.534510
RightArm -61.678900 69.009958 -8.812492
RightForeArm 50.718583 -0.000000 57.306216
RightHand 12.378965 -0.000000 -14.971232
RightHandThumb1 -24.326973 -0.000000 -32.862282
LeftUpLeg 9.816464 13.637049 6.744874
LeftLeg -9.970366 -0.000000 0.000000
LeftFoot -16.472210 28.940561 -7.781130
LeftToeBase 22.757771 -0.000000 -0.000000
RightUpLeg 6.205614 -4.901033 4.680103
RightLeg -4.799389 -0.000000 0.000000
RightFoot -5.070606 -27.834027 5.262199
RightToeBase 13.179114 -0.000000 -0.000000
3268
root -5.190136 35.179128 -9.084617 1.963294 -4.908076 -6.691782
Spine -5.619507 -3.674659 6.165817
Head 12.197068 -9.555746 -4.955334
LeftShoulder -21.227454 12.934084 -12.292011
LeftArm 15.354456 -14.193283 -76.130836
LeftForeArm 15.779178 -0.000000 10.522476
LeftHand 0.248915 0.000000 -5.081617
LeftHandThumb1 -26.253704 0.000000 33.147579
RightShoulder -13.857990 11.769127 -10.641628
RightArm -61.392300 68.728777 -8.543282
RightForeArm 50.627471 -0.000000 55.622797
RightHand 11.809692 -0.000000 -15.074334
RightHandThumb1 -24.326973 -0.000000 -32.862282
LeftUpLeg 9.807918 13.627373 6.736978
LeftLeg -9.971887 -0.000000 0.000000
LeftFoot -16.459756 28.932631 -7.783590
LeftToeBase 22.739495 -0.000000 -0.000000
RightUpLeg 6.202028 -4.908153 4.675365
RightLeg -4.801662 -0.000000 0.000000
RightFoot -5.073535 -27.843885 5.253308
RightToeBase 13.252009 -0.000000 -0.000000
3269
root -5.188394 35.179924 -9.087002 1.946804 -4.879246 -6.683841
Spine -5.554509 -3.663128 6.141242
Head 12.084348 -9.582694 -4.928947
LeftShoulder -21.225102 12.925766 -12.317678
LeftArm 15.375190 -14.173725 -76.087293
LeftForeArm 15.776000 -0.000000 10.568478
LeftHand 0.203745 -0.000000 -5.082951
LeftHandThumb1 -26.253704 0.000000 33.147579
RightShoulder -13.791877 11.798464 -10.735448
RightArm -60.715439 68.412655 -7.887071
RightForeArm 50.830397 -0.000000 53.926633
RightHand 11.517925 -0.000000 -15.813962
RightHandThumb1 -24.326973 -0.000000 -32.862282
LeftUpLeg 9.806744 13.627689 6.730348
LeftLeg -9.961772 -0.000000 0.000000
LeftFoot -16.457303 28.909098 -7.784300
LeftToeBase 22.747719 -0.000000 -0.000000
RightUpLeg 6.217571 -4.934868 4.662859
RightLeg -4.805397 -0.000000 0.000000
RightFoot -5.069526 -27.827870 5.262870
RightToeBase 13.193670 -0.000000 -0.000000
3270
root -5.188051 35.180308 -9.089313 1.942672 -4.843774 -6.676092
Spine -5.507539 -3.672122 6.114269
Head 11.968435 -9.596269 -4.900681
LeftShoulder -21.241293 12.908736 -12.341465
LeftArm 15.388877 -14.204130 -76.048318
LeftForeArm 15.721017 -0.000000 10.616504
LeftHand 0.188844 0.000000 -5.118859
LeftHandThumb1 -26.253704 0.000000 33.147579
RightShoulder -13.722822 11.785558 -10.795111
RightArm -60.045343 68.151180 -7.220448
RightForeArm 50.999910 -0.000000 52.277357
RightHand 10.507714 -0.000000 -16.360411
RightHandThumb1 -24.326973 -0.000000 -32.862282
LeftUpLeg 9.793071 13.603562 6.722484
LeftLeg -9.953913 -0.000000 0.000000
LeftFoot -16.439174 28.904292 -7.764195
LeftToeBase 22.718039 -0.000000 -0.000000
RightUpLeg 6.228282 -4.938525 4.657317
RightLeg -4.824371 -0.000000 0.000000
RightFoot -5.064754 -27.857066 5.292386
RightToeBase 13.178785 -0.000000 -0.000000
3271
root -5.187069 35.180486 -9.091893 1.932841 -4.815325 -6.666370
Spine -5.459237 -3.655291 6.090457
Head 11.873400 -9.626942 -4.897069
LeftShoulder -21.216639 12.912774 -12.369502
LeftArm 15.403667 -14.176832 -75.986187
LeftForeArm 15.645714 0.000000 10.647937
LeftHand 0.202315 -0.000000 -5.045500
LeftHandThumb1 -26.253704 0.000000 33.147579
RightShoulder -13.648234 11.741330 -10.880088
RightArm -59.354081 67.836631 -6.472493
RightForeArm 51.344483 -0.000000 50.549238
RightHand 10.161493 -0.000000 -17.361180
RightHandThumb1 -24.326973 -0.000000 -32.862282
LeftUpLeg 9.786773 13.583045 6.711039
LeftLeg -9.946937 -0.000000 0.000000
LeftFoot -16.449377 28.895807 -7.783369
LeftToeBase 22.771921 -0.000000 -0.000000
RightUpLeg 6.236984 -4.961811 4.646989
RightLeg -4.828707 -0.000000 0.000000
RightFoot -5.069005 -27.858244 5.296570
RightToeBase 13.188978 -0.000000 -0.000000
3272
root -5.187533 35.180474 -9.095403 1.935364 -4.784312 -6.655089
Spine -5.421147 -3.662153 6.061957
Head 11.762867 -9.639944 -4.887344
LeftShoulder -21.234623 12.919346 -12.412387
LeftArm 15.442967 -14.154714 -75.924495
LeftForeArm 15.666490 0.000000 10.677928
LeftHand 0.195322 -0.000000 -4.977653
LeftHandThumb1 -26.253704 0.000000 33.147579
RightShoulder -13.584952 11.719434 -10.945837
RightArm -58.426977 67.483373 -5.502016
RightForeArm 51.805073 -0.000000 48.748837
RightHand 10.460103 -0.000000 -18.118757
RightHandThumb1 -24.326973 -0.000000 -32.862282
LeftUpLeg 9.764485 13.570026 6.699535
LeftLeg -9.934220 -0.000000 0.000000
LeftFoot -16.435761 28.879289 -7.756601
LeftToeBase 22.756108 -0.000000 -0.000000
RightUpLeg 6.238329 -4.965033 4.643117
RightLeg -4.847201 -0.000000 0.000000
RightFoot -5.074702 -27.897147 5.290829
RightToeBase 13.227262 -0.000000 -0.000000
3273
root -5.188071 35.180821 -9.098095 1.931686 -4.747001 -6.642844
Spine -5.377919 -3.682992 6.030476
Head 11.650300 -9.664573 -4.887163
LeftShoulder -21.247609 12.905418 -12.448509
LeftArm 15.458619 -14.184712 -75.871084
LeftForeArm 15.691717 -0.000000 10.700505
LeftHand 0.184864 -0.000000 -4.967078
LeftHandThumb1 -26.253704 0.000000 33.147579
RightShoulder -13.535982 11.701026 -11.001761
RightArm -57.433795 67.145803 -4.436009
RightForeArm 51.824459 -0.000000 47.027126
RightHand 10.252020 -0.000000 -19.042485
RightHandThumb1 -24.326973 -0.000000 -32.862282
LeftUpLeg 9.751099 13.561158 6.689406
LeftLeg -9.933125 -0.000000 0.000000
LeftFoot -16.424268 28.858561 -7.757020
LeftToeBase 22.784066 -0.000000 -0.000000
RightUpLeg 6.244162 -4.997972 4.633197
RightLeg -4.858120 -0.000000 0.000000
RightFoot -5.061736 -27.896510 5.283063
RightToeBase 13.195839 -0.000000 -0.000000
3274
root -5.188816 35.180772 -9.101970 1.937914 -4.704035 -6.633984
Spine -5.343151 -3.708661 6.003916
Head 11.535457 -9.679523 -4.880745
LeftShoulder -21.262775 12.892110 -12.481227
LeftArm 15.473359 -14.151446 -75.803212
LeftForeArm 15.646740 -0.000000 10.712650
LeftHand 0.242994 -0.000000 -4.948650
LeftHandThumb1 -26.253704 0.000000 33.147579
RightShoulder -13.453107 11.697275 -11.103677
RightArm -56.470791 66.665273 -3.299106
RightForeArm 52.329376 -0.000000 45.219793
RightHand 10.317814 -0.000000 -19.607659
RightHandThumb1 -24.326973 -0.000000 -32.862282
LeftUpLeg 9.727874 13.542202 6.679857
LeftLeg -9.936430 -0.000000 0.000000
LeftFoot -16.402502 28.845413 -7.744027
LeftToeBase 22.747972 -0.000000 -0.000000
RightUpLeg 6.241610 -5.000333 4.630783
RightLeg -4.874456 -0.000000 0.000000
RightFoot -5.061755 -27.939091 5.274691
RightToeBase 13.190726 -0.000000 -0.000000
3275
root -5.189999 35.180993 -9.104680 1.935589 -4.666653 -6.616807
Spine -5.303743 -3.733850 5.966759
Head 11.432554 -9.696321 -4.879345
LeftShoulder -21.275934 12.919711 -12.526701
LeftArm 15.529077 -14.199590 -75.769448
LeftForeArm 15.702942 0.000000 10.721461
LeftHand 0.233451 -0.000000 -4.976597
LeftHandThumb1 -26.253704 0.000000 33.147579
RightShoulder -13.361531 11.696301 -11.174017
RightArm -55.986639 66.447602 -2.754929
RightForeArm 52.566853 -0.000000 43.234896
RightHand 9.873637 -0.000000 -19.992990
RightHandThumb1 -24.326973 -0.000000 -32.862282
LeftUpLeg 9.709335 13.533138 6.666336
LeftLeg -9.924654 -0.000000 0.000000
LeftFoot -16.406924 28.805552 -7.765195
LeftToeBase 22.785720 -0.000000 -0.000000
RightUpLeg 6.248498 -5.012899 4.619186
RightLeg -4.889127 -0.000000 0.000000
RightFoot -5.061902 -27.954767 5.263868
RightToeBase 13.221581 -0.000000 -0.000000
